<?xml version="1.0" encoding="UTF-8" standalone="no"?>
<!-- Created with Inkscape (http://www.inkscape.org/) -->

<svg
   xmlns:dc="http://purl.org/dc/elements/1.1/"
   xmlns:cc="http://creativecommons.org/ns#"
   xmlns:rdf="http://www.w3.org/1999/02/22-rdf-syntax-ns#"
   xmlns:svg="http://www.w3.org/2000/svg"
   xmlns="http://www.w3.org/2000/svg"
   xmlns:sodipodi="http://sodipodi.sourceforge.net/DTD/sodipodi-0.dtd"
   xmlns:inkscape="http://www.inkscape.org/namespaces/inkscape"
   width="98"
   height="71"
   id="svg4743"
   version="1.1"
   inkscape:version="0.47 r22583"
   sodipodi:docname="Nouveau document 5">
  <defs
     id="defs4745">
    <inkscape:perspective
       sodipodi:type="inkscape:persp3d"
       inkscape:vp_x="0 : 526.18109 : 1"
       inkscape:vp_y="0 : 1000 : 0"
       inkscape:vp_z="744.09448 : 526.18109 : 1"
       inkscape:persp3d-origin="372.04724 : 350.78739 : 1"
       id="perspective4751" />
    <inkscape:perspective
       id="perspective4647"
       inkscape:persp3d-origin="0.5 : 0.33333333 : 1"
       inkscape:vp_z="1 : 0.5 : 1"
       inkscape:vp_y="0 : 1000 : 0"
       inkscape:vp_x="0 : 0.5 : 1"
       sodipodi:type="inkscape:persp3d" />
    <clipPath
       id="clipPath2895"
       clipPathUnits="userSpaceOnUse">
      <path
         id="path2897"
         d="m 14.118,735.307 104.213,0 0,88.519 -104.213,0 0,-88.519 z" />
    </clipPath>
  </defs>
  <sodipodi:namedview
     id="base"
     pagecolor="#ffffff"
     bordercolor="#666666"
     borderopacity="1.0"
     inkscape:pageopacity="0.0"
     inkscape:pageshadow="2"
     inkscape:zoom="10.437419"
     inkscape:cx="48.545023"
     inkscape:cy="35.305657"
     inkscape:document-units="px"
     inkscape:current-layer="layer1"
     showgrid="false"
     inkscape:window-width="1920"
     inkscape:window-height="1005"
     inkscape:window-x="0"
     inkscape:window-y="24"
     inkscape:window-maximized="1" />
  <metadata
     id="metadata4748">
    <rdf:RDF>
      <cc:Work
         rdf:about="">
        <dc:format>image/svg+xml</dc:format>
        <dc:type
           rdf:resource="http://purl.org/dc/dcmitype/StillImage" />
        <dc:title></dc:title>
      </cc:Work>
    </rdf:RDF>
  </metadata>
  <g
     inkscape:label="Calque 1"
     inkscape:groupmode="layer"
     id="layer1"
     transform="translate(2022.8307,537.61787)">
    <g
       transform="matrix(1.25,0,0,-1.25,-2056.3093,470.95151)"
       id="g2891">
      <g
         clip-path="url(#clipPath2895)"
         id="g2893">
        <g
           transform="translate(69.547699,785.56261)"
           id="g2899">
          <path
             id="path2901"
             style="fill:#82695e;fill-opacity:1;fill-rule:nonzero;stroke:none"
             d="M 0,0 C -1.027,0.297 -2.612,0.511 -4.394,0.559 -6.175,0.606 -7.768,0.476 -8.809,0.233 l -2.584,2.36 c 2.165,0.469 4.559,0.697 7.07,0.631 2.497,-0.066 4.86,-0.417 6.988,-0.993 L 0,0 z" />
        </g>
        <g
           transform="translate(80.137299,794.80341)"
           id="g2903">
          <path
             id="path2905"
             style="fill:#f7980f;fill-opacity:1;fill-rule:nonzero;stroke:none"
             d="M 0,0 C -0.85,0.586 -2.258,1.262 -3.917,1.841 -5.576,2.42 -7.128,2.776 -8.203,2.862 L -9.708,5.846 C -7.486,5.636 -5.141,5.132 -2.802,4.317 -0.477,3.506 1.611,2.467 3.386,1.289 L 0,0 z" />
        </g>
        <g
           transform="translate(81.423294,786.7729)"
           id="g2907">
          <path
             id="path2909"
             style="fill:#82695e;fill-opacity:1;fill-rule:nonzero;stroke:none"
             d="m 0,0 c -1.28,0.873 -3.399,1.877 -5.892,2.734 -2.495,0.856 -4.826,1.379 -6.439,1.499 l -2.284,4.468 C -11.28,8.401 -7.76,7.662 -4.243,6.455 -0.749,5.256 2.392,3.713 5.069,1.958 L 0,0 z" />
        </g>
        <g
           transform="translate(62.573303,795.8708)"
           id="g2911">
          <path
             id="path2913"
             style="fill:#82695e;fill-opacity:1;fill-rule:nonzero;stroke:none"
             d="m 0,0 c -1.616,-0.089 -3.951,-0.567 -6.452,-1.374 -2.502,-0.807 -4.629,-1.77 -5.917,-2.618 l -5.099,2.026 c 2.701,1.714 5.874,3.207 9.4,4.345 3.505,1.131 7.01,1.8 10.331,2.039 L 0,0 z" />
        </g>
        <g
           transform="translate(60.229294,790.1628)"
           id="g2915">
          <path
             id="path2917"
             style="fill:#82695e;fill-opacity:1;fill-rule:nonzero;stroke:none"
             d="m 0,0 c -0.788,0.027 -1.945,-0.102 -3.2,-0.383 -1.257,-0.28 -2.342,-0.652 -3.013,-1.006 l -2.351,1.201 c 1.405,0.711 3.026,1.293 4.796,1.689 1.76,0.394 3.495,0.564 5.115,0.533 L 0,0 z" />
        </g>
        <g
           transform="translate(71.015305,805.0696)"
           id="g2919">
          <path
             id="path2921"
             style="fill:#82695e;fill-opacity:1;fill-rule:nonzero;stroke:none"
             d="M 0,0 C -0.352,0.152 -0.914,0.298 -1.555,0.394 -2.196,0.489 -2.78,0.512 -3.17,0.47 L -3.968,1.433 C -3.159,1.507 -2.281,1.485 -1.376,1.352 -0.478,1.218 0.356,0.989 1.092,0.687 L 0,0 z" />
        </g>
        <g
           transform="translate(61.426498,801.54539)"
           id="g2923">
          <path
             id="path2925"
             style="fill:#f7980f;fill-opacity:1;fill-rule:nonzero;stroke:none"
             d="M 0,0 C -0.572,0.036 -1.42,-0.033 -2.342,-0.213 -3.267,-0.391 -4.065,-0.64 -4.565,-0.883 L -6.246,0.04 c 1.044,0.488 2.24,0.879 3.542,1.131 1.292,0.25 2.562,0.338 3.741,0.284 L 0,0 z" />
        </g>
        <g
           transform="translate(50.462997,789.2292)"
           id="g2927">
          <path
             id="path2929"
             style="fill:#f7980f;fill-opacity:1;fill-rule:nonzero;stroke:none"
             d="M 0,0 C -0.539,-0.169 -1.279,-0.53 -2.04,-1.02 -2.8,-1.508 -3.415,-2.017 -3.758,-2.416 l -1.96,0.256 c 0.728,0.815 1.639,1.595 2.71,2.284 1.065,0.685 2.182,1.212 3.284,1.576 L 0,0 z" />
        </g>
        <g
           transform="translate(67.002502,797.0706)"
           id="g2931">
          <path
             id="path2933"
             style="fill:#dacdc7;fill-opacity:1;fill-rule:nonzero;stroke:none"
             d="m 0,0 c -0.763,0.173 -1.926,0.263 -3.222,0.224 -1.3,-0.04 -2.451,-0.201 -3.194,-0.421 L -8.423,1.412 C -6.875,1.844 -5.146,2.11 -3.318,2.166 -1.499,2.221 0.24,2.064 1.818,1.734 L 0,0 z" />
        </g>
        <g
           transform="translate(59.371704,787.33839)"
           id="g2935">
          <path
             id="path2937"
             style="fill:#c7b4ac;fill-opacity:1;fill-rule:nonzero;stroke:none"
             d="m 0,0 c -0.484,-0.005 -1.203,-0.121 -1.989,-0.338 -0.786,-0.216 -1.468,-0.487 -1.897,-0.733 l -1.407,0.703 c 0.893,0.497 1.915,0.918 3.023,1.223 1.1,0.303 2.177,0.462 3.176,0.491 L 0,0 z" />
        </g>
        <g
           transform="translate(67.729706,791.35049)"
           id="g2939">
          <path
             id="path2941"
             style="fill:#f7980f;fill-opacity:1;fill-rule:nonzero;stroke:none"
             d="m 0,0 c -1.052,0.221 -2.649,0.32 -4.427,0.237 -1.78,-0.083 -3.353,-0.33 -4.369,-0.646 l -2.798,2.163 C -9.482,2.38 -7.12,2.783 -4.612,2.9 -2.12,3.016 0.268,2.838 2.442,2.419 L 0,0 z" />
        </g>
        <g
           transform="translate(75.861298,784.26179)"
           id="g2943">
          <path
             id="path2945"
             style="fill:#f7980f;fill-opacity:1;fill-rule:nonzero;stroke:none"
             d="m 0,0 c -0.527,0.326 -1.386,0.694 -2.386,0.998 -1,0.307 -1.925,0.482 -2.556,0.508 L -5.986,3.234 C -4.678,3.159 -3.283,2.914 -1.873,2.484 -0.472,2.057 0.802,1.491 1.904,0.836 L 0,0 z" />
        </g>
        <g
           transform="translate(45.587204,779.66)"
           id="g2947">
          <path
             id="path2949"
             style="fill:#231f20;fill-opacity:1;fill-rule:nonzero;stroke:none"
             d="m 0,0 c -0.216,-0.01 -0.303,-0.062 -0.317,-0.202 -0.015,-0.11 -0.029,-0.269 -0.029,-0.582 l 0,-0.264 c 0,-0.374 -0.072,-0.677 -0.269,-0.874 -0.164,-0.158 -0.408,-0.255 -0.682,-0.255 -0.25,0 -0.476,0.053 -0.654,0.183 -0.202,0.149 -0.322,0.403 -0.322,0.817 l 0,0.797 c 0,0.332 -0.029,0.356 -0.331,0.38 l 0,0.149 1.191,0 0,-0.149 c -0.293,-0.024 -0.321,-0.048 -0.321,-0.38 l 0,-0.682 c 0,-0.562 0.211,-0.836 0.586,-0.836 0.398,0 0.595,0.303 0.595,0.869 l 0,0.241 c 0,0.341 -0.014,0.476 -0.028,0.586 -0.02,0.144 -0.111,0.187 -0.38,0.202 l 0,0.149 L 0,0.149 0,0 z" />
        </g>
        <g
           transform="translate(50.856399,779.66)"
           id="g2951">
          <path
             id="path2953"
             style="fill:#231f20;fill-opacity:1;fill-rule:nonzero;stroke:none"
             d="m 0,0 c -0.211,-0.01 -0.312,-0.058 -0.332,-0.202 -0.014,-0.134 -0.029,-0.293 -0.029,-0.615 l 0,-1.321 -0.235,0 -1.446,1.715 -0.005,0 0,-0.716 c 0,-0.336 0.015,-0.495 0.029,-0.61 0.019,-0.154 0.12,-0.197 0.38,-0.216 l 0,-0.149 -0.961,0 0,0.149 c 0.206,0.019 0.307,0.062 0.326,0.211 0.015,0.12 0.029,0.279 0.029,0.615 l 0,0.649 c 0,0.399 -0.086,0.466 -0.408,0.49 l 0,0.149 0.788,0 1.297,-1.48 0.01,0 0,0.509 c 0,0.327 -0.015,0.486 -0.029,0.606 -0.019,0.158 -0.106,0.201 -0.38,0.216 l 0,0.149 L 0,0.149 0,0 z" />
        </g>
        <g
           transform="translate(53.540405,777.54601)"
           id="g2955">
          <path
             id="path2957"
             style="fill:#231f20;fill-opacity:1;fill-rule:nonzero;stroke:none"
             d="m 0,0 0,0.153 c 0.298,0.02 0.331,0.044 0.331,0.375 l 0,1.206 C 0.331,2.071 0.298,2.085 0,2.109 l 0,0.154 1.201,0 0,-0.149 C 0.898,2.09 0.87,2.071 0.87,1.734 l 0,-1.206 C 0.87,0.197 0.898,0.173 1.201,0.153 L 1.201,0 0,0 z" />
        </g>
        <g
           transform="translate(60.067306,779.66)"
           id="g2959">
          <path
             id="path2961"
             style="fill:#231f20;fill-opacity:1;fill-rule:nonzero;stroke:none"
             d="m 0,0 c -0.25,-0.039 -0.312,-0.082 -0.461,-0.365 -0.163,-0.312 -0.485,-1.081 -0.778,-1.797 l -0.183,0 C -1.686,-1.533 -1.975,-0.86 -2.21,-0.308 -2.321,-0.053 -2.407,-0.029 -2.614,0 l 0,0.149 1.168,0 0,-0.149 -0.12,-0.024 c -0.135,-0.024 -0.149,-0.067 -0.082,-0.24 0.135,-0.322 0.322,-0.779 0.5,-1.221 0.144,0.337 0.408,0.995 0.471,1.197 0.062,0.197 0.048,0.245 -0.12,0.273 L -0.893,0 l 0,0.149 L 0,0.149 0,0 z" />
        </g>
        <g
           transform="translate(64.870499,778.17059)"
           id="g2963">
          <path
             id="path2965"
             style="fill:#231f20;fill-opacity:1;fill-rule:nonzero;stroke:none"
             d="m 0,0 c -0.024,-0.173 -0.101,-0.529 -0.13,-0.625 l -1.974,0 0,0.154 c 0.326,0.024 0.355,0.048 0.355,0.389 l 0,1.187 c 0,0.341 -0.024,0.36 -0.322,0.38 l 0,0.153 1.85,0 c 0.005,-0.096 0.019,-0.336 0.039,-0.562 l -0.154,-0.01 c -0.048,0.14 -0.082,0.212 -0.135,0.279 -0.062,0.077 -0.154,0.111 -0.394,0.111 l -0.207,0 c -0.129,0 -0.138,-0.01 -0.138,-0.14 l 0,-0.663 0.302,0 c 0.274,0 0.308,0.034 0.346,0.26 l 0.158,0 0,-0.735 -0.158,0 C -0.6,0.404 -0.634,0.447 -0.908,0.447 l -0.302,0 0,-0.515 c 0,-0.201 0.023,-0.293 0.081,-0.326 0.063,-0.038 0.168,-0.048 0.36,-0.048 0.211,0 0.332,0.024 0.419,0.12 0.066,0.067 0.129,0.178 0.196,0.336 L 0,0 z" />
        </g>
        <g
           transform="translate(68.616104,778.6796)"
           id="g2967">
          <path
             id="path2969"
             style="fill:#231f20;fill-opacity:1;fill-rule:nonzero;stroke:none"
             d="m 0,0 c 0.14,0 0.255,0.02 0.356,0.082 0.11,0.077 0.168,0.221 0.168,0.389 0,0.351 -0.221,0.49 -0.471,0.49 -0.154,0 -0.192,-0.038 -0.192,-0.173 L -0.139,0 0,0 z m 1.437,-1.162 -0.154,0 c -0.49,0 -0.639,0.115 -0.773,0.312 -0.116,0.158 -0.222,0.36 -0.318,0.523 -0.067,0.12 -0.11,0.159 -0.259,0.159 l -0.072,0 0,-0.437 c 0,-0.322 0.029,-0.351 0.331,-0.375 l 0,-0.154 -1.191,0 0,0.154 c 0.303,0.019 0.337,0.043 0.337,0.37 l 0,1.221 c 0,0.326 -0.03,0.35 -0.323,0.369 l 0,0.149 1.216,0 C 0.505,1.129 0.688,1.1 0.841,1.014 0.995,0.923 1.096,0.759 1.096,0.548 1.096,0.25 0.875,0.058 0.615,-0.029 0.677,-0.144 0.836,-0.394 0.952,-0.557 1.072,-0.73 1.144,-0.821 1.226,-0.903 1.298,-0.975 1.384,-1.014 1.456,-1.037 L 1.437,-1.162 z" />
        </g>
        <g
           transform="translate(74.197296,779.1553)"
           id="g2971">
          <path
             id="path2973"
             style="fill:#231f20;fill-opacity:1;fill-rule:nonzero;stroke:none"
             d="m 0,0 c -0.096,0.298 -0.264,0.548 -0.552,0.548 -0.207,0 -0.342,-0.154 -0.342,-0.332 0,-0.221 0.183,-0.307 0.361,-0.384 l 0.13,-0.053 c 0.374,-0.154 0.672,-0.327 0.672,-0.716 0,-0.447 -0.379,-0.735 -0.923,-0.735 -0.336,0 -0.576,0.125 -0.662,0.173 -0.034,0.096 -0.087,0.375 -0.12,0.634 l 0.149,0.039 c 0.091,-0.279 0.336,-0.678 0.692,-0.678 0.23,0 0.374,0.149 0.374,0.351 0,0.197 -0.134,0.308 -0.369,0.408 l -0.15,0.063 c -0.274,0.11 -0.61,0.307 -0.61,0.687 0,0.423 0.317,0.711 0.88,0.711 0.239,0 0.451,-0.077 0.547,-0.115 C 0.101,0.471 0.12,0.293 0.154,0.034 L 0,0 z" />
        </g>
        <g
           transform="translate(77.2173,777.54601)"
           id="g2975">
          <path
             id="path2977"
             style="fill:#231f20;fill-opacity:1;fill-rule:nonzero;stroke:none"
             d="m 0,0 0,0.153 c 0.298,0.02 0.332,0.044 0.332,0.375 l 0,1.206 C 0.332,2.071 0.298,2.085 0,2.109 l 0,0.154 1.202,0 0,-0.149 C 0.899,2.09 0.87,2.071 0.87,1.734 l 0,-1.206 C 0.87,0.197 0.899,0.173 1.202,0.153 L 1.202,0 0,0 z" />
        </g>
        <g
           transform="translate(83.254501,779.1647)"
           id="g2979">
          <path
             id="path2981"
             style="fill:#231f20;fill-opacity:1;fill-rule:nonzero;stroke:none"
             d="m 0,0 c -0.052,0.212 -0.096,0.308 -0.149,0.37 -0.062,0.072 -0.168,0.091 -0.346,0.091 l -0.192,0 0,-1.537 c 0,-0.346 0.029,-0.365 0.375,-0.389 l 0,-0.154 -1.268,0 0,0.154 c 0.326,0.024 0.354,0.043 0.354,0.389 l 0,1.537 -0.129,0 c -0.255,0 -0.337,-0.033 -0.403,-0.11 -0.053,-0.067 -0.096,-0.173 -0.14,-0.346 l -0.153,0 c 0.014,0.293 0.043,0.548 0.047,0.725 l 0.106,0 C -1.84,0.654 -1.802,0.644 -1.687,0.644 l 1.495,0 c 0.11,0 0.134,0.019 0.192,0.086 l 0.11,0 C 0.11,0.563 0.134,0.216 0.154,0.01 L 0,0 z" />
        </g>
        <g
           transform="translate(87.120895,780.4604)"
           id="g2983">
          <path
             id="path2985"
             style="fill:#231f20;fill-opacity:1;fill-rule:nonzero;stroke:none"
             d="m 0,0 -0.135,0.072 c 0.115,0.216 0.283,0.534 0.37,0.711 0.082,0.034 0.442,0.063 0.514,0.044 L 0.769,0.759 0,0 z M 1.133,-2.29 C 1.109,-2.463 1.032,-2.818 1.004,-2.914 l -1.975,0 0,0.153 c 0.327,0.024 0.356,0.048 0.356,0.389 l 0,1.187 c 0,0.341 -0.025,0.36 -0.322,0.38 l 0,0.153 1.849,0 c 0.005,-0.096 0.02,-0.336 0.039,-0.562 L 0.797,-1.223 C 0.749,-1.084 0.716,-1.012 0.662,-0.945 0.6,-0.868 0.509,-0.834 0.269,-0.834 l -0.207,0 c -0.13,0 -0.139,-0.01 -0.139,-0.139 l 0,-0.664 0.302,0 c 0.275,0 0.308,0.034 0.346,0.26 l 0.159,0 0,-0.735 -0.159,0 C 0.533,-1.886 0.5,-1.843 0.225,-1.843 l -0.302,0 0,-0.514 c 0,-0.202 0.024,-0.293 0.082,-0.327 0.062,-0.038 0.167,-0.048 0.359,-0.048 0.212,0 0.332,0.024 0.419,0.12 0.067,0.067 0.129,0.178 0.197,0.336 L 1.133,-2.29 z" />
        </g>
        <g
           transform="translate(52.114197,751.9391)"
           id="g2987">
          <path
             id="path2989"
             style="fill:#231f20;fill-opacity:1;fill-rule:nonzero;stroke:none"
             d="m 0,0 c 0.062,-0.024 0.153,-0.048 0.24,-0.048 0.135,0 0.447,0.067 0.447,0.538 0,0.351 -0.231,0.509 -0.48,0.509 C 0.014,0.999 0,0.961 0,0.793 L 0,0 z m 0.36,1.168 c 0.558,0 0.904,-0.212 0.904,-0.673 0,-0.447 -0.337,-0.677 -0.788,-0.74 -0.068,-0.01 -0.135,-0.01 -0.202,0 L 0,-0.173 0,-0.576 c 0,-0.318 0.029,-0.337 0.37,-0.366 l 0,-0.154 -1.225,0 0,0.154 c 0.298,0.029 0.326,0.048 0.326,0.361 l 0,1.206 c 0,0.346 -0.028,0.365 -0.307,0.389 l 0,0.154 1.196,0 z" />
        </g>
        <g
           transform="translate(56.907196,752.5587)"
           id="g2991">
          <path
             id="path2993"
             style="fill:#231f20;fill-opacity:1;fill-rule:nonzero;stroke:none"
             d="m 0,0 -0.009,0 -0.308,-0.807 0.615,0 L 0,0 z m 0.307,-1.715 0,0.154 0.087,0.009 c 0.135,0.024 0.168,0.063 0.101,0.236 l -0.115,0.298 -0.769,0 c -0.034,-0.082 -0.072,-0.183 -0.106,-0.308 -0.053,-0.163 0.005,-0.197 0.13,-0.221 l 0.12,-0.014 0,-0.154 -0.903,0 0,0.154 c 0.221,0.029 0.312,0.062 0.442,0.375 L 0.043,0.572 0.274,0.615 1.052,-1.254 C 1.153,-1.499 1.245,-1.542 1.47,-1.561 l 0,-0.154 -1.163,0 z" />
        </g>
        <g
           transform="translate(62.099304,751.97749)"
           id="g2995">
          <path
             id="path2997"
             style="fill:#231f20;fill-opacity:1;fill-rule:nonzero;stroke:none"
             d="m 0,0 c 0.139,0 0.255,0.019 0.356,0.082 0.11,0.076 0.168,0.221 0.168,0.389 0,0.351 -0.221,0.49 -0.471,0.49 -0.154,0 -0.192,-0.039 -0.192,-0.173 L -0.139,0 0,0 z m 1.437,-1.163 -0.154,0 c -0.49,0 -0.639,0.115 -0.773,0.313 -0.116,0.158 -0.222,0.36 -0.318,0.523 -0.067,0.12 -0.11,0.159 -0.259,0.159 l -0.072,0 0,-0.437 c 0,-0.322 0.029,-0.351 0.331,-0.375 l 0,-0.154 -1.191,0 0,0.154 c 0.303,0.019 0.336,0.043 0.336,0.37 l 0,1.22 c 0,0.327 -0.029,0.351 -0.322,0.37 l 0,0.149 1.215,0 C 0.504,1.129 0.687,1.1 0.841,1.014 0.994,0.922 1.095,0.759 1.095,0.548 1.095,0.25 0.875,0.058 0.615,-0.029 0.678,-0.144 0.836,-0.394 0.951,-0.558 1.072,-0.73 1.144,-0.822 1.226,-0.903 1.297,-0.976 1.384,-1.014 1.456,-1.038 L 1.437,-1.163 z" />
        </g>
        <g
           transform="translate(66.167297,750.84351)"
           id="g2999">
          <path
             id="path3001"
             style="fill:#231f20;fill-opacity:1;fill-rule:nonzero;stroke:none"
             d="m 0,0 0,0.154 c 0.298,0.019 0.331,0.043 0.331,0.375 l 0,1.205 C 0.331,2.071 0.298,2.085 0,2.109 l 0,0.154 1.201,0 0,-0.149 C 0.898,2.09 0.87,2.071 0.87,1.734 l 0,-1.205 C 0.87,0.197 0.898,0.173 1.201,0.154 L 1.201,0 0,0 z" />
        </g>
        <g
           transform="translate(71.613297,752.45309)"
           id="g3003">
          <path
             id="path3005"
             style="fill:#231f20;fill-opacity:1;fill-rule:nonzero;stroke:none"
             d="m 0,0 c -0.096,0.298 -0.264,0.548 -0.552,0.548 -0.207,0 -0.342,-0.154 -0.342,-0.332 0,-0.22 0.183,-0.307 0.361,-0.384 l 0.129,-0.053 c 0.375,-0.154 0.673,-0.327 0.673,-0.716 0,-0.447 -0.379,-0.735 -0.922,-0.735 -0.337,0 -0.577,0.125 -0.663,0.173 -0.034,0.096 -0.087,0.375 -0.12,0.634 l 0.148,0.039 c 0.092,-0.279 0.336,-0.678 0.692,-0.678 0.23,0 0.375,0.149 0.375,0.351 0,0.197 -0.134,0.307 -0.37,0.408 l -0.149,0.063 c -0.274,0.11 -0.61,0.307 -0.61,0.687 0,0.423 0.317,0.711 0.879,0.711 C -0.23,0.716 -0.02,0.639 0.077,0.6 0.101,0.471 0.12,0.293 0.154,0.034 L 0,0 z" />
        </g>
        <g
           transform="translate(79.305298,751.8575)"
           id="g3007">
          <path
             id="path3009"
             style="fill:#231f20;fill-opacity:1;fill-rule:nonzero;stroke:none"
             d="m 0,0 c 0.433,-0.062 0.672,-0.365 0.672,-0.692 0,-0.783 -0.974,-1.11 -1.244,-1.11 -0.192,0 -0.374,0.087 -0.456,0.159 -0.063,0.057 -0.086,0.115 -0.063,0.197 0.02,0.052 0.063,0.12 0.125,0.163 0.044,0.034 0.092,0.029 0.135,-0.009 0.111,-0.097 0.303,-0.25 0.523,-0.25 0.226,0 0.438,0.192 0.438,0.629 0,0.433 -0.288,0.61 -0.524,0.61 -0.101,0 -0.197,-0.023 -0.284,-0.053 l -0.033,0.145 c 0.413,0.163 0.673,0.345 0.673,0.658 0,0.269 -0.164,0.399 -0.375,0.399 -0.207,0 -0.361,-0.159 -0.481,-0.318 l -0.105,0.102 0.206,0.287 c 0.125,0.145 0.331,0.26 0.572,0.26 l 0.005,0 c 0.427,0 0.692,-0.25 0.692,-0.624 C 0.476,0.427 0.418,0.326 0.322,0.24 0.25,0.178 0.139,0.096 0,0.009 L 0,0 z" />
        </g>
        <g
           transform="translate(32.144897,773.7027)"
           id="g3011">
          <path
             id="path3013"
             style="fill:#231f20;fill-opacity:1;fill-rule:nonzero;stroke:none"
             d="m 0,0 c -0.281,0.982 -0.733,2.089 -2.058,2.089 -1.138,0 -1.699,-0.826 -1.699,-1.683 0,-1.092 0.717,-1.622 1.98,-2.26 1.294,-0.655 2.697,-1.404 2.697,-3.118 0,-1.668 -1.403,-2.994 -3.523,-2.994 -0.624,0 -1.138,0.11 -1.528,0.234 -0.405,0.125 -0.639,0.25 -0.811,0.328 -0.124,0.343 -0.327,1.668 -0.42,2.463 l 0.483,0.124 c 0.249,-0.966 0.982,-2.571 2.572,-2.571 1.138,0 1.824,0.717 1.824,1.823 0,1.107 -0.826,1.668 -1.996,2.292 -1.106,0.577 -2.603,1.371 -2.603,3.086 0,1.528 1.232,2.822 3.274,2.822 0.779,0 1.465,-0.203 1.995,-0.374 C 0.249,1.7 0.343,1.076 0.468,0.094 L 0,0 z" />
        </g>
        <g
           transform="translate(38.970596,774.60629)"
           id="g3015">
          <path
             id="path3017"
             style="fill:#231f20;fill-opacity:1;fill-rule:nonzero;stroke:none"
             d="m 0,0 c -1.267,0 -2.482,-1.197 -2.482,-3.521 0,-2.341 1.179,-3.978 2.816,-3.978 1.285,0 2.447,0.951 2.447,3.503 C 2.781,-1.989 1.778,0 0.018,0 L 0,0 z m 0.194,0.581 c 2.622,0 4.4,-1.849 4.4,-4.225 0,-2.939 -2.235,-4.436 -4.418,-4.436 -2.869,0 -4.471,2.095 -4.471,4.172 0,3.116 2.464,4.489 4.471,4.489 l 0.018,0 z" />
        </g>
        <g
           transform="translate(48.775696,770.83949)"
           id="g3019">
          <path
             id="path3021"
             style="fill:#231f20;fill-opacity:1;fill-rule:nonzero;stroke:none"
             d="m 0,0 c 0.493,0 0.915,0.07 1.267,0.299 0.458,0.282 0.687,0.827 0.687,1.461 0,1.285 -0.863,1.796 -1.831,1.796 -0.704,0 -0.792,-0.159 -0.792,-0.669 L -0.669,0 0,0 z m 4.981,-4.19 -0.44,0 c -1.531,0 -2.077,0.405 -2.587,1.145 -0.405,0.563 -0.863,1.373 -1.144,1.848 -0.3,0.51 -0.476,0.634 -1.127,0.634 l -0.352,0 0,-1.62 c 0,-1.215 0.106,-1.303 1.25,-1.408 l 0,-0.493 -4.049,0 0,0.493 c 1.144,0.088 1.25,0.176 1.25,1.408 l 0,4.401 c 0,1.267 -0.106,1.32 -1.197,1.39 l 0,0.511 4.049,0 C 1.549,4.119 2.2,4.013 2.746,3.679 3.274,3.38 3.644,2.798 3.644,2.007 c 0,-1.145 -0.81,-1.796 -1.69,-2.113 0.211,-0.387 0.774,-1.285 1.179,-1.866 0.44,-0.634 0.669,-0.933 0.986,-1.25 0.282,-0.299 0.616,-0.44 0.933,-0.545 L 4.981,-4.19 z" />
        </g>
        <g
           transform="translate(57.735504,768.65669)"
           id="g3023">
          <path
             id="path3025"
             style="fill:#231f20;fill-opacity:1;fill-rule:nonzero;stroke:none"
             d="m 0,0 c 0,-1.144 0.44,-1.338 1.127,-1.338 1.02,0 1.883,0.598 1.883,1.831 C 3.01,1.742 2.095,2.2 0.774,2.2 L 0,2.2 0,0 z m 0.774,2.781 c 1.057,0 1.813,0.37 1.813,1.444 0,1.144 -0.862,1.513 -1.707,1.513 C 0.123,5.738 0,5.544 0,4.999 l 0,-2.218 0.774,0 z M 2.535,2.605 c 1.302,-0.176 2.27,-0.775 2.27,-2.024 0,-1.919 -2.13,-2.482 -4.118,-2.482 l -3.486,0 0,0.493 c 1.162,0.105 1.268,0.176 1.268,1.443 l 0,4.26 c 0,1.355 -0.106,1.408 -1.198,1.513 l 0,0.494 4.208,0 C 3.186,6.302 4.26,5.774 4.26,4.418 4.26,3.274 3.204,2.799 2.535,2.64 l 0,-0.035 z" />
        </g>
        <g
           transform="translate(68.983704,774.60629)"
           id="g3027">
          <path
             id="path3029"
             style="fill:#231f20;fill-opacity:1;fill-rule:nonzero;stroke:none"
             d="m 0,0 c -1.268,0 -2.482,-1.197 -2.482,-3.521 0,-2.341 1.179,-3.978 2.816,-3.978 1.286,0 2.447,0.951 2.447,3.503 C 2.781,-1.989 1.778,0 0.018,0 L 0,0 z m 0.194,0.581 c 2.622,0 4.4,-1.849 4.4,-4.225 0,-2.939 -2.235,-4.436 -4.418,-4.436 -2.869,0 -4.471,2.095 -4.471,4.172 0,3.116 2.464,4.489 4.471,4.489 l 0.018,0 z" />
        </g>
        <g
           transform="translate(84.544495,774.44791)"
           id="g3031">
          <path
             id="path3033"
             style="fill:#231f20;fill-opacity:1;fill-rule:nonzero;stroke:none"
             d="M 0,0 C -0.827,-0.053 -1.162,-0.194 -1.214,-0.739 -1.267,-1.215 -1.32,-1.796 -1.32,-3.01 l 0,-4.77 -0.651,0 -5.316,6.354 -0.018,0 0,-2.728 c 0,-1.232 0.053,-1.848 0.106,-2.271 0.07,-0.545 0.405,-0.704 1.373,-0.774 l 0,-0.493 -3.468,0 0,0.493 c 0.81,0.07 1.126,0.229 1.197,0.774 0.053,0.423 0.123,1.039 0.123,2.271 l 0,2.358 c 0,1.462 -0.299,1.726 -1.513,1.796 l 0,0.51 2.535,0 4.928,-5.65 0.035,0 0,2.13 c 0,1.214 -0.053,1.795 -0.105,2.236 -0.053,0.58 -0.352,0.721 -1.356,0.774 l 0,0.51 L 0,0.51 0,0 z" />
        </g>
        <g
           transform="translate(95.176895,774.44791)"
           id="g3035">
          <path
             id="path3037"
             style="fill:#231f20;fill-opacity:1;fill-rule:nonzero;stroke:none"
             d="M 0,0 C -0.828,-0.053 -1.162,-0.194 -1.215,-0.739 -1.267,-1.215 -1.32,-1.796 -1.32,-3.01 l 0,-4.77 -0.652,0 -5.316,6.354 -0.017,0 0,-2.728 c 0,-1.232 0.053,-1.848 0.105,-2.271 0.071,-0.545 0.405,-0.704 1.374,-0.774 l 0,-0.493 -3.468,0 0,0.493 c 0.81,0.07 1.126,0.229 1.196,0.774 0.054,0.423 0.124,1.039 0.124,2.271 l 0,2.358 c 0,1.462 -0.299,1.726 -1.514,1.796 l 0,0.51 2.535,0 4.929,-5.65 0.035,0 0,2.13 c 0,1.214 -0.053,1.795 -0.106,2.236 -0.053,0.58 -0.352,0.721 -1.355,0.774 l 0,0.51 L 0,0.51 0,0 z" />
        </g>
        <g
           transform="translate(104.4549,768.44949)"
           id="g3039">
          <path
             id="path3041"
             style="fill:#231f20;fill-opacity:1;fill-rule:nonzero;stroke:none"
             d="m 0,0 c -0.078,-0.546 -0.405,-1.995 -0.53,-2.478 l -7.607,0 0,0.452 c 1.403,0.109 1.543,0.234 1.543,1.512 l 0,6.157 c 0,1.388 -0.14,1.45 -1.325,1.559 l 0,0.452 7.015,0 c 0,-0.374 0.078,-1.434 0.14,-2.26 L -1.247,5.316 c -0.14,0.639 -0.312,1.013 -0.515,1.325 -0.233,0.343 -0.654,0.452 -1.73,0.452 l -1.106,0 c -0.499,0 -0.546,-0.047 -0.546,-0.514 l 0,-3.508 1.403,0 c 1.387,0 1.496,0.125 1.683,1.169 l 0.468,0 0,-3.008 -0.468,0 c -0.202,1.106 -0.327,1.2 -1.683,1.2 l -1.403,0 0,-2.884 c 0,-0.732 0.094,-1.091 0.374,-1.278 0.296,-0.187 0.842,-0.187 1.59,-0.187 1.122,0 1.574,0.125 1.918,0.515 0.28,0.327 0.561,0.856 0.794,1.48 L 0,0 z" />
        </g>
        <g
           transform="translate(41.956604,763.4411)"
           id="g3043">
          <path
             id="path3045"
             style="fill:#82695e;fill-opacity:1;fill-rule:nonzero;stroke:none"
             d="M 0,0 C -0.706,-0.059 -0.971,-0.176 -1.015,-0.647 -1.059,-1.03 -1.103,-1.515 -1.103,-2.53 l 0,-3.972 -0.486,0 -4.427,5.34 -0.015,-0.015 0,-2.309 c 0,-1.015 0.029,-1.559 0.088,-1.898 0.044,-0.456 0.324,-0.588 1.133,-0.647 l 0,-0.397 -2.868,0 0,0.397 c 0.676,0.059 0.941,0.191 1,0.633 0.044,0.353 0.088,0.897 0.088,1.912 l 0,1.971 c 0,1.221 -0.235,1.441 -1.25,1.515 l 0,0.397 2,0 4.163,-4.81 0.03,0 0,1.883 c 0,1.015 -0.03,1.5 -0.074,1.868 C -1.78,-0.176 -2.015,-0.059 -2.854,0 l 0,0.397 L 0,0.397 0,0 z" />
        </g>
        <g
           transform="translate(46.720993,763.5587)"
           id="g3047">
          <path
             id="path3049"
             style="fill:#82695e;fill-opacity:1;fill-rule:nonzero;stroke:none"
             d="m 0,0 c -1.118,0 -2.162,-0.986 -2.162,-2.927 0,-1.957 1.015,-3.354 2.456,-3.354 1.103,0 2.119,0.809 2.119,2.942 C 2.413,-1.677 1.53,0 0.015,0 L 0,0 z m 0.147,0.471 c 2.148,0 3.648,-1.53 3.648,-3.531 0,-2.427 -1.868,-3.677 -3.648,-3.677 -2.353,0 -3.692,1.736 -3.692,3.471 0,2.604 2.074,3.737 3.677,3.737 l 0.015,0 z" />
        </g>
        <g
           transform="translate(59.590897,763.4411)"
           id="g3051">
          <path
             id="path3053"
             style="fill:#82695e;fill-opacity:1;fill-rule:nonzero;stroke:none"
             d="M 0,0 C -0.692,-0.059 -0.956,-0.192 -1.001,-0.692 -1.044,-1.03 -1.074,-1.515 -1.074,-2.501 l 0,-0.809 c 0,-0.985 -0.206,-1.927 -0.809,-2.53 -0.5,-0.5 -1.221,-0.78 -2.001,-0.78 -0.691,0 -1.338,0.133 -1.853,0.53 -0.618,0.471 -0.956,1.236 -0.956,2.471 l 0,2.427 c 0,1.03 -0.074,1.089 -1.03,1.192 l 0,0.397 3.236,0 0,-0.397 c -0.926,-0.103 -1,-0.162 -1,-1.192 l 0,-2.103 c 0,-1.692 0.662,-2.603 1.912,-2.603 1.31,0 1.927,1 1.927,2.721 l 0,0.676 c 0,1.015 -0.029,1.457 -0.073,1.809 C -1.78,-0.176 -2.015,-0.059 -2.868,0 l 0,0.397 L 0,0.397 0,0 z" />
        </g>
        <g
           transform="translate(68.224106,763.4411)"
           id="g3055">
          <path
             id="path3057"
             style="fill:#82695e;fill-opacity:1;fill-rule:nonzero;stroke:none"
             d="M 0,0 C -0.809,-0.132 -0.971,-0.236 -1.427,-1.192 -1.854,-2.044 -2.81,-4.384 -3.678,-6.576 l -0.441,0 c -0.765,1.913 -1.765,4.355 -2.309,5.634 -0.324,0.78 -0.544,0.854 -1.206,0.942 l 0,0.397 3.118,0 0,-0.397 -0.412,-0.088 c -0.382,-0.074 -0.441,-0.162 -0.28,-0.633 0.251,-0.647 1.03,-2.545 1.692,-4.192 0.53,1.28 1.339,3.339 1.589,4.119 0.176,0.529 0.103,0.647 -0.427,0.735 L -2.678,0 l 0,0.397 L 0,0.397 0,0 z" />
        </g>
        <g
           transform="translate(75.444504,758.8223)"
           id="g3059">
          <path
             id="path3061"
             style="fill:#82695e;fill-opacity:1;fill-rule:nonzero;stroke:none"
             d="m 0,0 c -0.073,-0.426 -0.294,-1.515 -0.382,-1.809 l -5.678,0 0,0.397 c 1.044,0.088 1.118,0.176 1.118,1.236 l 0,3.574 c 0,1.074 -0.074,1.147 -1.015,1.206 l 0,0.412 5.295,0 C -0.647,4.722 -0.603,4.001 -0.544,3.324 L -0.941,3.295 C -1.074,3.751 -1.191,4.001 -1.338,4.177 -1.53,4.427 -1.765,4.53 -2.545,4.53 l -0.779,0 c -0.397,0 -0.427,-0.014 -0.427,-0.412 l 0,-2.118 1.074,0 c 0.883,0 0.956,0.104 1.089,0.81 l 0.411,0 0,-2.222 -0.411,0 c -0.133,0.75 -0.192,0.868 -1.089,0.868 l -1.074,0 0,-1.706 c 0,-0.559 0.074,-0.824 0.25,-0.941 0.191,-0.118 0.53,-0.148 1.148,-0.148 0.735,0 1.118,0.089 1.383,0.368 0.176,0.206 0.367,0.515 0.558,1.045 L 0,0 z" />
        </g>
        <g
           transform="translate(82.680496,758.92509)"
           id="g3063">
          <path
             id="path3065"
             style="fill:#82695e;fill-opacity:1;fill-rule:nonzero;stroke:none"
             d="m 0,0 c -0.073,-0.441 -0.294,-1.589 -0.397,-1.912 l -5.501,0 0,0.397 c 1.029,0.073 1.103,0.147 1.103,1.206 l 0,3.648 c 0,1.059 -0.088,1.103 -1.044,1.177 l 0,0.397 3.339,0 0,-0.397 C -3.501,4.442 -3.604,4.398 -3.604,3.339 l 0,-3.795 c 0,-0.515 0.074,-0.78 0.28,-0.882 0.206,-0.088 0.574,-0.118 1.074,-0.118 0.662,0.014 1.059,0.103 1.294,0.382 0.206,0.236 0.353,0.559 0.544,1.118 L 0,0 z" />
        </g>
        <g
           transform="translate(89.740097,758.92509)"
           id="g3067">
          <path
             id="path3069"
             style="fill:#82695e;fill-opacity:1;fill-rule:nonzero;stroke:none"
             d="m 0,0 c -0.074,-0.441 -0.294,-1.589 -0.397,-1.912 l -5.501,0 0,0.397 c 1.029,0.073 1.103,0.147 1.103,1.206 l 0,3.648 c 0,1.059 -0.088,1.103 -1.045,1.177 l 0,0.397 3.34,0 0,-0.397 C -3.501,4.442 -3.604,4.398 -3.604,3.339 l 0,-3.795 c 0,-0.515 0.074,-0.78 0.28,-0.882 0.206,-0.088 0.574,-0.118 1.074,-0.118 0.662,0.014 1.058,0.103 1.294,0.382 0.206,0.236 0.353,0.559 0.544,1.118 L 0,0 z" />
        </g>
        <g
           transform="translate(96.946503,758.8223)"
           id="g3071">
          <path
             id="path3073"
             style="fill:#82695e;fill-opacity:1;fill-rule:nonzero;stroke:none"
             d="m 0,0 c -0.073,-0.426 -0.294,-1.515 -0.382,-1.809 l -5.678,0 0,0.397 c 1.044,0.088 1.118,0.176 1.118,1.236 l 0,3.574 c 0,1.074 -0.074,1.147 -1.015,1.206 l 0,0.412 5.295,0 C -0.647,4.722 -0.603,4.001 -0.544,3.324 L -0.941,3.295 C -1.074,3.751 -1.191,4.001 -1.338,4.177 -1.53,4.427 -1.765,4.53 -2.545,4.53 l -0.779,0 c -0.397,0 -0.427,-0.014 -0.427,-0.412 l 0,-2.118 1.074,0 c 0.883,0 0.956,0.104 1.089,0.81 l 0.412,0 0,-2.222 -0.412,0 c -0.133,0.75 -0.192,0.868 -1.089,0.868 l -1.074,0 0,-1.706 c 0,-0.559 0.074,-0.824 0.25,-0.941 0.191,-0.118 0.53,-0.148 1.148,-0.148 0.735,0 1.117,0.089 1.383,0.368 0.176,0.206 0.367,0.515 0.558,1.045 L 0,0 z" />
        </g>
      </g>
    </g>
  </g>
</svg>
